<?xml version="1.0" encoding="UTF-8" standalone="no"?>
<!-- Created with Inkscape (http://www.inkscape.org/) -->

<svg
   width="2950"
   height="755.90601"
   viewBox="0 0 780.52071 200.00013"
   version="1.1"
   id="svg1"
   inkscape:version="1.3 (0e150ed, 2023-07-21)"
   sodipodi:docname="lockedInTitle.svg"
   xmlns:inkscape="http://www.inkscape.org/namespaces/inkscape"
   xmlns:sodipodi="http://sodipodi.sourceforge.net/DTD/sodipodi-0.dtd"
   xmlns="http://www.w3.org/2000/svg"
   xmlns:svg="http://www.w3.org/2000/svg">
  <sodipodi:namedview
     id="namedview1"
     pagecolor="#000000"
     bordercolor="#000000"
     borderopacity="0.25"
     inkscape:showpageshadow="2"
     inkscape:pageopacity="0.0"
     inkscape:pagecheckerboard="0"
     inkscape:deskcolor="#d1d1d1"
     inkscape:document-units="mm"
     inkscape:zoom="0.17502904"
     inkscape:cx="1614.0179"
     inkscape:cy="311.3769"
     inkscape:window-width="1512"
     inkscape:window-height="834"
     inkscape:window-x="0"
     inkscape:window-y="38"
     inkscape:window-maximized="0"
     inkscape:current-layer="layer1"
     inkscape:export-bgcolor="#000000ff" />
  <defs
     id="defs1" />
  <g
     inkscape:label="Layer 1"
     inkscape:groupmode="layer"
     id="layer1">
    <rect
       style="fill:none;fill-opacity:1;stroke:#e6ab17;stroke-width:4.72432;stroke-dasharray:none;stroke-opacity:1"
       id="rect1"
       width="102.58197"
       height="108.06465"
       x="48.709015"
       y="72.372498"
       ry="17.237305"
       inkscape:label="body" />
    <g
       id="g4"
       inkscape:label="hat"
       transform="translate(0.44243317)">
      <path
         style="fill:none;fill-opacity:1;stroke:#e6ab17;stroke-width:4.72432;stroke-dasharray:none;stroke-opacity:1"
         id="path1"
         transform="matrix(-0.99996328,-0.00856982,0.00772236,-0.99997018,0,0)"
         sodipodi:type="arc"
         sodipodi:cx="-100.56596"
         sodipodi:cy="-71.717628"
         sodipodi:rx="38.389713"
         sodipodi:ry="40.441238"
         sodipodi:start="0"
         sodipodi:end="3.1401781"
         sodipodi:arc-type="arc"
         d="m -62.17625,-71.717628 a 38.389713,40.441238 0 0 1 -38.36256,40.441228 38.389713,40.441238 0 0 1 -38.41683,-40.384022"
         sodipodi:open="true" />
      <path
         style="fill:none;fill-opacity:1;stroke:#e6ab17;stroke-width:3.45099;stroke-dasharray:none;stroke-opacity:1"
         id="path1-8"
         transform="matrix(-0.99987103,-0.0160599,0.00412049,-0.99999151,0,0)"
         sodipodi:type="arc"
         sodipodi:cx="-100.30682"
         sodipodi:cy="-70.559006"
         sodipodi:rx="20.485106"
         sodipodi:ry="40.439857"
         sodipodi:start="0"
         sodipodi:end="3.1401781"
         sodipodi:arc-type="arc"
         d="m -79.821718,-70.559006 a 20.485106,40.439857 0 0 1 -20.470622,40.439848 20.485106,40.439857 0 0 1 -20.49957,-40.382643"
         sodipodi:open="true" />
      <ellipse
         style="fill:none;fill-opacity:1;stroke:#e6ab17;stroke-width:2.91465;stroke-dasharray:none;stroke-opacity:1"
         id="path2"
         cx="73.286316"
         cy="28.521555"
         rx="25.506969"
         ry="5.8104715" />
      <ellipse
         style="fill:none;fill-opacity:1;stroke:#e6ab17;stroke-width:2.91465;stroke-dasharray:none;stroke-opacity:1"
         id="path2-6"
         cx="125.82882"
         cy="28.580959"
         rx="25.506969"
         ry="5.8104715" />
    </g>
    <g
       id="g5">
      <circle
         style="fill:#e6ab17;fill-opacity:1;stroke:#e6ab17;stroke-width:4.17372;stroke-dasharray:none;stroke-opacity:1"
         id="path3"
         cx="100"
         cy="111.32954"
         r="10.592243" />
      <path
         sodipodi:type="star"
         style="fill:#e6ab17;fill-opacity:1;stroke:#e6ab17;stroke-width:5.29167;stroke-dasharray:none;stroke-opacity:1"
         id="path4"
         inkscape:flatsided="false"
         sodipodi:sides="3"
         sodipodi:cx="172.40829"
         sodipodi:cy="33.765427"
         sodipodi:r1="26.883211"
         sodipodi:r2="13.441607"
         sodipodi:arg1="0.52359878"
         sodipodi:arg2="1.5707963"
         inkscape:rounded="0.05"
         inkscape:randomized="0"
         d="m 195.68984,47.207032 c -0.58204,1.008121 -22.11747,2e-6 -23.28154,2e-6 -1.16408,0 -22.69951,1.008119 -23.28155,-2e-6 -0.58204,-1.00812 11.05873,-19.154288 11.64077,-20.162409 0.58204,-1.00812 10.4767,-20.1624075 11.64077,-20.1624075 1.16408,0 11.05874,19.1542865 11.64078,20.1624075 0.58204,1.00812 12.22281,19.154289 11.64077,20.162409 z"
         inkscape:transform-center-x="1.1209217e-06"
         inkscape:transform-center-y="-5.4489016"
         transform="matrix(0.58071617,0,0,0.81075266,-0.12028376,108.84649)" />
    </g>
    <g
       id="text1"
       style="font-weight:bold;font-size:59.9722px;font-family:'Helvetica Neue';-inkscape-font-specification:'Helvetica Neue Bold';fill:#e6ab17;stroke-width:1.804;stroke-linecap:round;paint-order:stroke markers fill"
       aria-label="FTC Team 48&#10;NerdHerd Locked In">
      <path
         d="m 182.27416,41.227244 v 42.82015 h 9.41563 V 66.355595 h 17.93169 v -7.316608 h -17.93169 v -9.895413 h 20.69041 v -7.91633 z m 45.03903,7.91633 v 34.90382 h 9.41564 v -34.90382 h 12.83405 v -7.91633 h -35.08374 v 7.91633 z m 55.71407,6.476998 h 9.11577 q -0.41981,-3.718277 -2.03906,-6.596942 -1.61924,-2.878666 -4.13808,-4.797776 -2.45886,-1.979083 -5.63738,-2.99861 -3.11856,-1.019527 -6.65692,-1.019527 -4.91772,0 -8.87588,1.739193 -3.8982,1.739194 -6.59694,4.797776 -2.69875,3.058582 -4.13809,7.196664 -1.43933,4.07811 -1.43933,8.875886 0,4.677831 1.43933,8.755941 1.43934,4.018137 4.13809,7.016747 2.69874,2.99861 6.59694,4.737803 3.95816,1.679222 8.87588,1.679222 3.95817,0 7.25664,-1.199444 3.29847,-1.199444 5.75733,-3.478388 2.45886,-2.278943 3.95816,-5.517442 1.49931,-3.238498 1.85914,-7.256636 h -9.11577 q -0.53975,4.317999 -2.99861,6.956775 -2.39889,2.638777 -6.71689,2.638777 -3.17852,0 -5.3975,-1.199444 -2.21897,-1.259416 -3.59833,-3.298471 -1.37936,-2.039055 -2.03905,-4.557887 -0.59972,-2.578805 -0.59972,-5.277553 0,-2.818694 0.59972,-5.457471 0.65969,-2.638776 2.03905,-4.677831 1.37936,-2.099027 3.59833,-3.298471 2.21898,-1.259416 5.3975,-1.259416 1.7392,0 3.29847,0.599722 1.61925,0.53975 2.87867,1.559277 1.25942,1.019527 2.09903,2.398888 0.83961,1.319388 1.0795,2.938638 z m 42.04045,-6.476998 v 34.90382 h 9.41564 v -34.90382 h 12.83405 v -7.91633 h -35.08374 v 7.91633 z m 40.48112,16.072549 h -13.85358 q 0.06,-0.899583 0.35983,-2.039054 0.35983,-1.139472 1.13947,-2.158999 0.83961,-1.019528 2.159,-1.679222 1.37936,-0.719666 3.41842,-0.719666 3.11855,0 4.61786,1.679221 1.55927,1.679222 2.159,4.91772 z m -13.85358,5.397498 h 22.36963 q 0.23989,-3.598332 -0.59972,-6.896802 -0.83961,-3.298471 -2.75872,-5.877276 -1.85914,-2.578804 -4.79778,-4.078109 -2.93864,-1.559278 -6.8968,-1.559278 -3.53836,0 -6.477,1.259417 -2.87867,1.259416 -4.97769,3.478387 -2.09903,2.158999 -3.2385,5.157609 -1.13947,2.99861 -1.13947,6.476998 0,3.598331 1.0795,6.596941 1.13947,2.99861 3.17852,5.157609 2.03906,2.159 4.97769,3.358444 2.93864,1.139471 6.59695,1.139471 5.27755,0 8.99583,-2.398888 3.71827,-2.398887 5.51744,-7.976302 h -7.49653 q -0.4198,1.439333 -2.27894,2.758721 -1.85914,1.259416 -4.43794,1.259416 -3.59833,0 -5.51744,-1.859138 -1.91912,-1.859138 -2.09903,-5.99722 z m 27.04743,-8.036274 q 0.17992,-2.99861 1.4993,-4.977693 1.31939,-1.979082 3.35845,-3.178526 2.03905,-1.199444 4.55788,-1.679222 2.57881,-0.53975 5.15761,-0.53975 2.33892,0 4.73781,0.359834 2.39889,0.299861 4.37797,1.259416 1.97908,0.959555 3.2385,2.698749 1.25941,1.679221 1.25941,4.497915 v 16.132521 q 0,2.099027 0.23989,4.018137 0.23989,1.919111 0.83961,2.878666 h -8.63599 q -0.23989,-0.719667 -0.41981,-1.439333 -0.11994,-0.779639 -0.17992,-1.559277 -2.03905,2.099027 -4.79777,2.938638 -2.75872,0.83961 -5.63739,0.83961 -2.21897,0 -4.13808,-0.539749 -1.91911,-0.53975 -3.35844,-1.679222 -1.43934,-1.139472 -2.27895,-2.878665 -0.77964,-1.739194 -0.77964,-4.138082 0,-2.638777 0.89959,-4.317998 0.95955,-1.739194 2.39888,-2.758722 1.49931,-1.019527 3.35845,-1.499305 1.91911,-0.539749 3.83822,-0.83961 1.91911,-0.299861 3.77825,-0.479778 1.85914,-0.179917 3.29847,-0.53975 1.43933,-0.359833 2.27894,-1.019527 0.83961,-0.719666 0.77964,-2.039055 0,-1.37936 -0.47978,-2.158999 -0.4198,-0.839611 -1.19944,-1.259416 -0.71967,-0.479778 -1.7392,-0.599722 -0.95955,-0.179917 -2.09902,-0.179917 -2.51883,0 -3.95817,1.0795 -1.43933,1.079499 -1.67922,3.598332 z m 19.67088,6.297081 q -0.53975,0.479777 -1.37936,0.779638 -0.77964,0.239889 -1.73919,0.419806 -0.89959,0.179916 -1.91911,0.299861 -1.01953,0.119944 -2.03906,0.299861 -0.95955,0.179916 -1.91911,0.479777 -0.89958,0.299861 -1.61925,0.839611 -0.65969,0.479777 -1.0795,1.259416 -0.4198,0.779639 -0.4198,1.979083 0,1.139471 0.4198,1.91911 0.41981,0.779639 1.13947,1.259416 0.71967,0.419806 1.67922,0.599722 0.95956,0.179917 1.97909,0.179917 2.51883,0 3.89819,-0.839611 1.37936,-0.839611 2.03906,-1.979083 0.65969,-1.199444 0.77963,-2.398888 0.17992,-1.199444 0.17992,-1.91911 z m 15.35285,-15.832661 v 31.005627 h 8.51605 v -17.99166 q 0,-2.278943 0.6597,-3.658304 0.65969,-1.439333 1.55928,-2.158999 0.95955,-0.779639 1.91911,-1.019527 1.01952,-0.299861 1.61925,-0.299861 2.03905,0 3.05858,0.719666 1.0795,0.659694 1.4993,1.799166 0.47978,1.139472 0.53975,2.518832 0.06,1.319389 0.06,2.698749 v 17.391938 h 8.51606 V 66.775401 q 0,-1.439333 0.17991,-2.818694 0.23989,-1.439332 0.83961,-2.518832 0.6597,-1.139472 1.7392,-1.799166 1.13947,-0.719666 2.93864,-0.719666 1.79916,0 2.81869,0.599722 1.0795,0.599722 1.61925,1.619249 0.53975,1.019527 0.65969,2.398888 0.11995,1.37936 0.11995,2.938638 v 17.571854 h 8.51605 V 63.297013 q 0,-2.99861 -0.83961,-5.097637 -0.83961,-2.158999 -2.33892,-3.478387 -1.4993,-1.319389 -3.59833,-1.919111 -2.09903,-0.599722 -4.55789,-0.599722 -3.2385,0 -5.63738,1.559278 -2.33892,1.559277 -3.71828,3.598331 -1.25942,-2.878665 -3.71828,-4.018137 -2.39888,-1.139472 -5.33752,-1.139472 -3.05858,0 -5.45747,1.319389 -2.33892,1.319388 -4.01814,3.718276 h -0.11994 v -4.198054 z m 86.2399,-0.299861 V 67.31515 h -11.03489 l 10.85497,-14.573244 z m 0,21.589992 v 9.715496 h 8.09625 v -9.715496 h 5.57741 V 67.31515 h -5.57741 V 42.066855 h -7.61647 l -18.23155,24.468657 v 7.796386 z m 24.94843,-20.870325 q 0,-1.439333 0.47978,-2.518833 0.53975,-1.079499 1.43933,-1.799166 0.89959,-0.719666 2.03906,-1.079499 1.19944,-0.419806 2.45886,-0.419806 1.97908,0 3.17853,0.599722 1.25941,0.599722 1.91911,1.499305 0.71966,0.899583 0.95955,1.919111 0.23989,0.959555 0.23989,1.799166 0,2.698749 -1.79917,4.138081 -1.79916,1.379361 -4.49791,1.379361 -2.5788,0 -4.49792,-1.379361 -1.91911,-1.439332 -1.91911,-4.138081 z m -7.73641,-0.779639 q 0,3.118554 1.55928,5.45747 1.55928,2.338916 4.61786,3.178527 v 0.119944 q -3.77825,0.899583 -5.87728,3.598332 -2.03905,2.698749 -2.03905,6.716886 0,3.418415 1.31939,5.877276 1.37936,2.45886 3.59833,4.078109 2.27894,1.619249 5.09763,2.338916 2.87867,0.779638 5.93725,0.779638 2.93864,0 5.75733,-0.779638 2.8187,-0.839611 5.03767,-2.45886 2.21897,-1.61925 3.53836,-4.07811 1.37936,-2.45886 1.37936,-5.817303 0,-3.958165 -2.03906,-6.656914 -2.03905,-2.758721 -5.8173,-3.598332 v -0.119944 q 3.05858,-1.019528 4.55789,-3.358444 1.55927,-2.338915 1.55927,-5.45747 0,-1.559277 -0.71966,-3.478387 -0.71967,-1.979083 -2.39889,-3.658304 -1.61925,-1.739194 -4.318,-2.938638 -2.69875,-1.199444 -6.59694,-1.199444 -2.5788,0 -5.09764,0.719666 -2.51883,0.719667 -4.55788,2.159 -1.97909,1.439332 -3.2385,3.598332 -1.25942,2.158999 -1.25942,4.977692 z m 6.77686,18.651354 q 0,-3.238499 2.159,-4.917721 2.159,-1.739193 5.27755,-1.739193 1.49931,0 2.75872,0.479777 1.31939,0.479778 2.27895,1.379361 1.01952,0.899583 1.55927,2.158999 0.59973,1.199444 0.59973,2.698749 0,1.559277 -0.53975,2.878665 -0.53975,1.319389 -1.55928,2.278944 -0.95956,0.899583 -2.27894,1.439333 -1.25942,0.479777 -2.8187,0.479777 -1.4993,0 -2.87866,-0.479777 -1.37936,-0.53975 -2.39889,-1.439333 -0.95956,-0.959555 -1.55928,-2.278944 -0.59972,-1.319388 -0.59972,-2.938637 z"
         id="path5" />
      <path
         d="m 182.27416,116.19249 v 42.82015 h 8.81591 v -28.66671 h 0.11995 l 17.81174,28.66671 h 9.41564 v -42.82015 h -8.81592 v 28.72669 h -0.11994 l -17.87172,-28.72669 z m 64.4101,23.98888 h -13.85358 q 0.06,-0.89958 0.35983,-2.03905 0.35983,-1.13947 1.13947,-2.159 0.83961,-1.01953 2.159,-1.67922 1.37936,-0.71967 3.41842,-0.71967 3.11855,0 4.61786,1.67922 1.55927,1.67922 2.159,4.91772 z m -13.85358,5.3975 h 22.36963 q 0.23989,-3.59833 -0.59972,-6.8968 -0.83961,-3.29847 -2.75873,-5.87728 -1.85913,-2.5788 -4.79777,-4.07811 -2.93864,-1.55928 -6.8968,-1.55928 -3.53836,0 -6.477,1.25942 -2.87867,1.25942 -4.97769,3.47839 -2.09903,2.159 -3.2385,5.15761 -1.13947,2.99861 -1.13947,6.47699 0,3.59834 1.0795,6.59695 1.13947,2.99861 3.17852,5.15761 2.03906,2.15899 4.97769,3.35844 2.93864,1.13947 6.59695,1.13947 5.27755,0 8.99583,-2.39889 3.71827,-2.39889 5.51744,-7.9763 h -7.49653 q -0.4198,1.43933 -2.27894,2.75872 -1.85914,1.25942 -4.43794,1.25942 -3.59833,0 -5.51745,-1.85914 -1.91911,-1.85914 -2.09902,-5.99722 z m 27.40725,-17.57185 v 31.00562 h 8.51606 v -13.97352 q 0,-2.09903 0.4198,-3.89819 0.41981,-1.79917 1.37936,-3.11856 1.01953,-1.37936 2.63878,-2.159 1.61925,-0.77964 3.95816,-0.77964 0.77964,0 1.61925,0.11995 0.83961,0.06 1.43934,0.17992 v -7.91633 q -1.01953,-0.29987 -1.85914,-0.29987 -1.61925,0 -3.11856,0.47978 -1.4993,0.47978 -2.81869,1.37936 -1.31939,0.83961 -2.33892,2.09903 -1.01952,1.19944 -1.61924,2.63878 h -0.11995 v -5.75733 z m 44.2594,15.41285 q 0,1.91911 -0.35984,3.71828 -0.35983,1.79916 -1.19944,3.2385 -0.83961,1.37936 -2.27894,2.21897 -1.37936,0.83961 -3.47839,0.83961 -1.97908,0 -3.41842,-0.83961 -1.37936,-0.89959 -2.33891,-2.27895 -0.89959,-1.43933 -1.31939,-3.2385 -0.41981,-1.79916 -0.41981,-3.59833 0,-1.91911 0.35984,-3.6583 0.4198,-1.79917 1.25941,-3.17853 0.89959,-1.37936 2.33892,-2.21897 1.43933,-0.83961 3.53836,-0.83961 2.09903,0 3.47839,0.83961 1.37936,0.83961 2.21897,2.21897 0.89958,1.31939 1.25941,3.11856 0.35984,1.73919 0.35984,3.6583 z m 0.11994,11.63461 v 3.95816 h 8.09625 v -42.82015 h -8.51605 v 15.59277 h -0.11995 q -1.43933,-2.27894 -3.95816,-3.41841 -2.45886,-1.19945 -5.21759,-1.19945 -3.41841,0 -5.99721,1.37937 -2.57881,1.31938 -4.318,3.53835 -1.67922,2.21898 -2.57881,5.15761 -0.83961,2.87867 -0.83961,5.99722 0,3.2385 0.83961,6.23711 0.89959,2.99861 2.57881,5.33753 1.73919,2.27894 4.37797,3.6583 2.63877,1.31939 6.11716,1.31939 3.05858,0 5.45747,-1.0795 2.45886,-1.13947 3.95817,-3.6583 z m 15.41275,-38.86199 v 42.82015 h 9.41563 V 140.5412 h 17.33197 v 18.47144 h 9.41563 v -42.82015 h -9.41563 v 16.43238 h -17.33197 v -16.43238 z m 64.41009,23.98888 h -13.85358 q 0.06,-0.89958 0.35983,-2.03905 0.35984,-1.13947 1.13947,-2.159 0.83962,-1.01953 2.159,-1.67922 1.37936,-0.71967 3.41842,-0.71967 3.11855,0 4.61786,1.67922 1.55928,1.67922 2.159,4.91772 z m -13.85358,5.3975 h 22.36963 q 0.23989,-3.59833 -0.59972,-6.8968 -0.83961,-3.29847 -2.75872,-5.87728 -1.85914,-2.5788 -4.79778,-4.07811 -2.93864,-1.55928 -6.8968,-1.55928 -3.53836,0 -6.477,1.25942 -2.87867,1.25942 -4.97769,3.47839 -2.09903,2.159 -3.2385,5.15761 -1.13947,2.99861 -1.13947,6.47699 0,3.59834 1.0795,6.59695 1.13947,2.99861 3.17852,5.15761 2.03906,2.15899 4.9777,3.35844 2.93863,1.13947 6.59694,1.13947 5.27755,0 8.99583,-2.39889 3.71827,-2.39889 5.51744,-7.9763 h -7.49653 q -0.4198,1.43933 -2.27894,2.75872 -1.85914,1.25942 -4.43794,1.25942 -3.59833,0 -5.51744,-1.85914 -1.91911,-1.85914 -2.09903,-5.99722 z m 27.40726,-17.57185 v 31.00562 h 8.51606 v -13.97352 q 0,-2.09903 0.4198,-3.89819 0.41981,-1.79917 1.37936,-3.11856 1.01953,-1.37936 2.63878,-2.159 1.61925,-0.77964 3.95816,-0.77964 0.77964,0 1.61925,0.11995 0.83961,0.06 1.43934,0.17992 v -7.91633 q -1.01953,-0.29987 -1.85914,-0.29987 -1.61925,0 -3.11856,0.47978 -1.4993,0.47978 -2.81869,1.37936 -1.31939,0.83961 -2.33892,2.09903 -1.01952,1.19944 -1.61925,2.63878 h -0.11994 v -5.75733 z m 44.25939,15.41285 q 0,1.91911 -0.35983,3.71828 -0.35984,1.79916 -1.19945,3.2385 -0.83961,1.37936 -2.27894,2.21897 -1.37936,0.83961 -3.47839,0.83961 -1.97908,0 -3.41842,-0.83961 -1.37936,-0.89959 -2.33891,-2.27895 -0.89958,-1.43933 -1.31939,-3.2385 -0.4198,-1.79916 -0.4198,-3.59833 0,-1.91911 0.35983,-3.6583 0.4198,-1.79917 1.25941,-3.17853 0.89959,-1.37936 2.33892,-2.21897 1.43933,-0.83961 3.53836,-0.83961 2.09903,0 3.47839,0.83961 1.37936,0.83961 2.21897,2.21897 0.89958,1.31939 1.25942,3.11856 0.35983,1.73919 0.35983,3.6583 z m 0.11994,11.63461 v 3.95816 h 8.09625 v -42.82015 h -8.51605 v 15.59277 h -0.11995 q -1.43933,-2.27894 -3.95816,-3.41841 -2.45886,-1.19945 -5.21758,-1.19945 -3.41842,0 -5.99722,1.37937 -2.57881,1.31938 -4.318,3.53835 -1.67922,2.21898 -2.57881,5.15761 -0.83961,2.87867 -0.83961,5.99722 0,3.2385 0.83961,6.23711 0.89959,2.99861 2.57881,5.33753 1.73919,2.27894 4.37797,3.6583 2.63878,1.31939 6.11716,1.31939 3.05859,0 5.45747,-1.0795 2.45886,-1.13947 3.95817,-3.6583 z m 32.085,-38.86199 v 42.82015 h 30.28596 v -7.91633 h -20.87033 v -34.90382 z m 42.22036,27.34732 q 0,-1.85913 0.35983,-3.6583 0.35984,-1.79917 1.19945,-3.17853 0.89958,-1.37936 2.33891,-2.21897 1.43934,-0.89958 3.59833,-0.89958 2.159,0 3.59834,0.89958 1.4993,0.83961 2.33891,2.21897 0.89959,1.37936 1.25942,3.17853 0.35983,1.79917 0.35983,3.6583 0,1.85914 -0.35983,3.65831 -0.35983,1.73919 -1.25942,3.17853 -0.83961,1.37936 -2.33891,2.21897 -1.43934,0.83961 -3.59834,0.83961 -2.15899,0 -3.59833,-0.83961 -1.43933,-0.83961 -2.33891,-2.21897 -0.83961,-1.43934 -1.19945,-3.17853 -0.35983,-1.79917 -0.35983,-3.65831 z m -8.51605,0 q 0,3.71828 1.13947,6.71689 1.13947,2.99861 3.2385,5.15761 2.09902,2.09903 5.03766,3.2385 2.93864,1.13947 6.59694,1.13947 3.65831,0 6.59695,-1.13947 2.99861,-1.13947 5.09763,-3.2385 2.09903,-2.159 3.2385,-5.15761 1.13947,-2.99861 1.13947,-6.71689 0,-3.71827 -1.13947,-6.71688 -1.13947,-3.05858 -3.2385,-5.15761 -2.09902,-2.159 -5.09763,-3.29847 -2.93864,-1.19945 -6.59695,-1.19945 -3.6583,0 -6.59694,1.19945 -2.93864,1.13947 -5.03766,3.29847 -2.09903,2.09903 -3.2385,5.15761 -1.13947,2.99861 -1.13947,6.71688 z m 58.71265,-4.61785 h 8.33614 q -0.17992,-2.99861 -1.43934,-5.15761 -1.25941,-2.21898 -3.29847,-3.65831 -1.97908,-1.4993 -4.55789,-2.21897 -2.51883,-0.71967 -5.27755,-0.71967 -3.77825,0 -6.71689,1.25942 -2.93863,1.25942 -4.97769,3.53836 -2.03905,2.21897 -3.11855,5.33753 -1.01953,3.05858 -1.01953,6.65691 0,3.47839 1.13947,6.41703 1.13947,2.87866 3.17853,4.97769 2.03905,2.09902 4.91772,3.29847 2.93864,1.13947 6.41702,1.13947 6.17714,0 10.13531,-3.2385 3.95816,-3.2385 4.79777,-9.41563 h -8.21619 q -0.4198,2.87866 -2.09903,4.61786 -1.61925,1.67922 -4.67783,1.67922 -1.97908,0 -3.35844,-0.89959 -1.37936,-0.89958 -2.21897,-2.27894 -0.77964,-1.43933 -1.13947,-3.17853 -0.35984,-1.73919 -0.35984,-3.41841 0,-1.73919 0.35984,-3.47839 0.35983,-1.79916 1.19944,-3.2385 0.89958,-1.4993 2.27894,-2.39889 1.37936,-0.95955 3.41842,-0.95955 5.45747,0 6.29708,5.33753 z m 14.09344,-22.72947 v 42.82015 h 8.51605 v -10.67505 l 3.29847,-3.17853 8.51605,13.85358 h 10.31522 l -13.01397,-19.61091 11.69458,-11.39471 h -10.07533 l -10.73502,11.15482 v -22.96935 z m 54.51469,23.98888 h -13.85357 q 0.06,-0.89958 0.35983,-2.03905 0.35983,-1.13947 1.13947,-2.159 0.83961,-1.01953 2.159,-1.67922 1.37936,-0.71967 3.41842,-0.71967 3.11855,0 4.61785,1.67922 1.55928,1.67922 2.159,4.91772 z m -13.85357,5.3975 h 22.36963 q 0.23988,-3.59833 -0.59973,-6.8968 -0.83961,-3.29847 -2.75872,-5.87728 -1.85914,-2.5788 -4.79777,-4.07811 -2.93864,-1.55928 -6.89681,-1.55928 -3.53836,0 -6.47699,1.25942 -2.87867,1.25942 -4.9777,3.47839 -2.09902,2.159 -3.23849,5.15761 -1.13948,2.99861 -1.13948,6.47699 0,3.59834 1.0795,6.59695 1.13947,2.99861 3.17853,5.15761 2.03905,2.15899 4.97769,3.35844 2.93864,1.13947 6.59694,1.13947 5.27756,0 8.99583,-2.39889 3.71828,-2.39889 5.51745,-7.9763 h -7.49653 q -0.4198,1.43933 -2.27894,2.75872 -1.85914,1.25942 -4.43795,1.25942 -3.59833,0 -5.51744,-1.85914 -1.91911,-1.85914 -2.09902,-5.99722 z m 49.41706,-2.159 q 0,1.91911 -0.35984,3.71828 -0.35983,1.79916 -1.19944,3.2385 -0.83961,1.37936 -2.27894,2.21897 -1.37936,0.83961 -3.47839,0.83961 -1.97908,0 -3.41842,-0.83961 -1.37936,-0.89959 -2.33891,-2.27895 -0.89959,-1.43933 -1.31939,-3.2385 -0.41981,-1.79916 -0.41981,-3.59833 0,-1.91911 0.35984,-3.6583 0.4198,-1.79917 1.25941,-3.17853 0.89959,-1.37936 2.33892,-2.21897 1.43933,-0.83961 3.53836,-0.83961 2.09903,0 3.47839,0.83961 1.37936,0.83961 2.21897,2.21897 0.89958,1.31939 1.25941,3.11856 0.35984,1.73919 0.35984,3.6583 z m 0.11994,11.63461 v 3.95816 h 8.09625 v -42.82015 h -8.51605 v 15.59277 h -0.11995 q -1.43933,-2.27894 -3.95816,-3.41841 -2.45886,-1.19945 -5.21759,-1.19945 -3.41841,0 -5.99722,1.37937 -2.5788,1.31938 -4.31799,3.53835 -1.67923,2.21898 -2.57881,5.15761 -0.83961,2.87867 -0.83961,5.99722 0,3.2385 0.83961,6.23711 0.89958,2.99861 2.57881,5.33753 1.73919,2.27894 4.37797,3.6583 2.63877,1.31939 6.11716,1.31939 3.05858,0 5.45747,-1.0795 2.45886,-1.13947 3.95817,-3.6583 z m 32.085,-38.86199 v 42.82015 h 9.41563 v -42.82015 z m 16.79213,11.81453 v 31.00562 h 8.51605 v -16.25246 q 0,-4.73781 1.55928,-6.77686 1.55927,-2.09903 5.03766,-2.09903 3.05858,0 4.25803,1.91911 1.19944,1.85914 1.19944,5.69736 v 17.51188 h 8.51605 v -19.07116 q 0,-2.87866 -0.53975,-5.21758 -0.47978,-2.39889 -1.73919,-4.01814 -1.25942,-1.67922 -3.47839,-2.5788 -2.159,-0.95956 -5.57741,-0.95956 -2.69875,0 -5.27756,1.25942 -2.5788,1.19944 -4.19805,3.89819 h -0.17992 v -4.31799 z"
         id="path6" />
    </g>
  </g>
</svg>
